<svg width="378" height="554" viewBox="0 0 378 554" fill="none" xmlns="http://www.w3.org/2000/svg">
<path style="mix-blend-mode:multiply" d="M23.2187 272.367C17.6821 211.511 13.0496 132.256 45.9899 78.2934C79.6613 23.1337 130.04 5.72116 192.663 15.0524C282.21 28.3955 336.197 120.664 355.075 201.43C375.21 287.58 376.436 372.072 324.936 447.702C293.537 493.813 227.621 530.335 170.561 518.973C84.7276 501.882 44.1101 431.713 34.2694 351.669C22.668 257.302 34.6149 165.75 82.4907 82.6434C97.3349 56.8757 129.896 2.05386 167.882 12.3755C224.768 27.8322 265.088 109.343 287.096 156.927C326.02 241.085 346.567 339.571 333.308 432.31C325.246 488.699 282.273 527.721 227.824 539.719C156.813 555.367 86.243 527.883 54.6965 461.086C12.3962 371.52 0.394882 263.84 17.526 166.296C27.7368 108.155 58.4496 40.0655 117.317 17.3946C164.196 -0.659218 229.508 15.9885 265.329 49.5171C288.197 70.9207 302.88 93.9178 315.56 121.793" stroke="#E6B1B1" stroke-width="20" stroke-linejoin="round"/>
</svg>
